<svg width="1255" height="1284" viewBox="0 0 1255 1284" fill="none" xmlns="http://www.w3.org/2000/svg">
<g filter="url(#filter0_f_45_42)">
<path d="M1020.73 602.801C893.192 444.085 224.02 713.584 213.874 720.424C-191.009 941.664 618.827 1082.99 637.387 1089.77C437.626 785.816 952.819 739.051 1020.73 602.801Z" fill="#3B37FF"/>
<path d="M936.93 417.705C979.321 300.854 647.972 340.442 476.999 374.843C307.597 493.587 584.724 872.505 652.225 729.662C757.961 505.908 883.942 563.769 936.93 417.705Z" fill="#37E7FF"/>
<path d="M885.055 441.054C937.169 310.484 552.325 372.481 353.388 419.801C155.25 466.766 571.1 996.855 517.106 796.955C463.111 597.056 819.912 604.267 885.055 441.054Z" fill="#FF37D3"/>
<path d="M862.735 433.677C791.68 345.459 419.373 494.838 413.729 498.633C188.492 621.33 639.279 700.208 649.612 703.98C538.291 535.06 825.004 509.325 862.735 433.677Z" fill="#EB1B1B"/>
<path d="M829.294 528.856C862.846 456.864 562.903 516.019 408.738 554.595C344.481 569.853 421.993 653.441 483.124 789.101C544.254 924.761 610.71 835.262 654.215 700.229C697.72 565.197 787.354 618.847 829.294 528.856Z" fill="#FFF500"/>
<path d="M808.725 529.378C809.719 500.151 516.769 566.616 370.17 603.501C439.174 705.691 580.069 886.344 591.621 791.443C606.06 672.818 681.922 617.231 717.391 600.89C752.859 584.55 807.484 565.912 808.725 529.378Z" fill="white"/>
</g>
<g style="mix-blend-mode:color-dodge" filter="url(#filter1_f_45_42)">
<path d="M1036.99 504.005C877.146 377.888 285.341 790.426 276.985 799.365C-68.0565 1105.67 752.858 1062.01 772.465 1064.46C509.699 812.978 1001.33 652.004 1036.99 504.005Z" fill="#3B37FF"/>
<path d="M920.738 386.244C963.129 269.393 631.78 308.981 460.807 343.382C291.405 462.126 568.532 841.044 636.033 698.201C741.769 474.447 867.75 532.309 920.738 386.244Z" fill="#37E7FF"/>
<path d="M1004.5 530.871C1056.1 480.28 671.145 560.643 472.83 509.618C274.691 556.583 690.541 1086.67 636.547 886.772C582.553 686.872 879.006 653.892 1004.5 530.871Z" fill="#FF37D3"/>
<path d="M864.269 329.362C772.961 262.323 451.431 502.208 446.95 507.324C260.724 683.694 716.661 644.296 727.615 645.291C576.688 510.579 847.206 412.158 864.269 329.362Z" fill="#EB1B1B"/>
<path d="M839.599 661.866C904.441 615.995 614.652 518.592 461.652 475.624C398.288 457.002 424.135 568.029 409.93 716.146C395.725 864.263 497.822 819.51 602.573 723.836C707.325 628.162 758.546 719.205 839.599 661.866Z" fill="#FFF500"/>
<path d="M849.075 564.851C850.524 535.643 556.573 597.528 409.416 632.122C476.817 735.375 614.876 918.205 627.907 823.496C644.196 705.11 720.917 650.714 756.636 634.929C792.355 619.144 847.263 601.361 849.075 564.851Z" fill="white"/>
</g>
<defs>
<filter id="filter0_f_45_42" x="0.661621" y="239.548" width="1120.07" height="950.217" filterUnits="userSpaceOnUse" color-interpolation-filters="sRGB">
<feFlood flood-opacity="0" result="BackgroundImageFix"/>
<feBlend mode="normal" in="SourceGraphic" in2="BackgroundImageFix" result="shape"/>
<feGaussianBlur stdDeviation="50" result="effect1_foregroundBlur_45_42"/>
</filter>
<filter id="filter1_f_45_42" x="92.4097" y="208.087" width="1044.58" height="957.27" filterUnits="userSpaceOnUse" color-interpolation-filters="sRGB">
<feFlood flood-opacity="0" result="BackgroundImageFix"/>
<feBlend mode="normal" in="SourceGraphic" in2="BackgroundImageFix" result="shape"/>
<feGaussianBlur stdDeviation="50" result="effect1_foregroundBlur_45_42"/>
</filter>
</defs>
</svg>
