<svg width="51" height="51" viewBox="0 0 51 51" fill="none" xmlns="http://www.w3.org/2000/svg">
<g clip-path="url(#clip0_108_49645)">
<path d="M49.5797 42.2608H1.304C0.827929 42.2608 0.441895 41.8747 0.441895 41.3987V10.3643C0.441895 9.88819 0.827929 9.50215 1.304 9.50215H49.5798C50.0559 9.50215 50.4419 9.88819 50.4419 10.3643V41.3987C50.4418 41.8748 50.0558 42.2608 49.5797 42.2608Z" fill="#FF4B55"/>
<path d="M8.74259 14.625L9.56446 17.0892L12.1621 17.1093C12.4984 17.1119 12.6379 17.5412 12.3673 17.7409L10.2776 19.284L11.0611 21.7607C11.1625 22.0814 10.7975 22.3465 10.5238 22.151L8.41056 20.6404L6.29728 22.1509C6.02365 22.3465 5.65861 22.0812 5.75997 21.7606L6.54347 19.2839L4.45382 17.7409C4.18322 17.5411 4.32267 17.1119 4.659 17.1093L7.25665 17.0892L8.07852 14.625C8.18497 14.3058 8.63624 14.3058 8.74259 14.625Z" fill="#FFE15A"/>
<path d="M18.1753 15.2322L18.7646 16.0359L19.7157 15.7384C19.8388 15.7 19.9401 15.8404 19.8647 15.945L19.2825 16.7537L19.8592 17.5663C19.934 17.6714 19.8317 17.8112 19.7089 17.7718L18.7597 17.468L18.1651 18.2677C18.0882 18.3713 17.9236 18.3171 17.9231 18.1882L17.9187 17.1917L16.9744 16.8732C16.8522 16.8319 16.8527 16.6589 16.9753 16.6184L17.9216 16.3063L17.9327 15.3098C17.9341 15.181 18.099 15.1282 18.1753 15.2322Z" fill="#FFE15A"/>
<path d="M14.5874 12.8367L15.5781 12.9443L16.0008 12.0419C16.0555 11.9251 16.2274 11.9451 16.2538 12.0714L16.4575 13.0468L17.4464 13.1698C17.5744 13.1857 17.6085 13.3555 17.4965 13.4196L16.6317 13.9147L16.8203 14.8932C16.8447 15.02 16.6938 15.1048 16.5982 15.0181L15.86 14.3487L14.9878 14.8304C14.8749 14.8928 14.7474 14.7754 14.8004 14.6577L15.2089 13.7487L14.4811 13.0679C14.387 12.9802 14.4592 12.8228 14.5874 12.8367Z" fill="#FFE15A"/>
<path d="M16.1536 22.4942L15.5642 23.2979L14.6132 23.0005C14.49 22.962 14.3887 23.1024 14.4641 23.207L15.0464 24.0157L14.4696 24.8283C14.3949 24.9335 14.4971 25.0732 14.62 25.0339L15.5691 24.73L16.1637 25.5297C16.2407 25.6333 16.4052 25.5792 16.4057 25.4503L16.4101 24.4537L17.3545 24.1352C17.4767 24.0939 17.4761 23.9209 17.3536 23.8804L16.4073 23.5683L16.3962 22.5718C16.3946 22.4431 16.2298 22.3901 16.1536 22.4942Z" fill="#FFE15A"/>
<path d="M19.7415 20.2431L18.7508 20.3508L18.3281 19.4483C18.2734 19.3315 18.1015 19.3515 18.0751 19.4778L17.8713 20.4532L16.8824 20.5762C16.7544 20.5922 16.7203 20.7619 16.8323 20.826L17.6971 21.3212L17.5085 22.2997C17.4841 22.4264 17.635 22.5112 17.7306 22.4246L18.4688 21.7551L19.341 22.2368C19.4539 22.2992 19.5814 22.1818 19.5284 22.0641L19.1199 21.1552L19.8477 20.4743C19.9421 20.3866 19.8699 20.2293 19.7415 20.2431Z" fill="#FFE15A"/>
</g>
<defs>
<clipPath id="clip0_108_49645">
<rect width="50" height="50" fill="white" transform="translate(0.441406 0.881348)"/>
</clipPath>
</defs>
</svg>
