<svg width="51" height="51" viewBox="0 0 51 51" fill="none" xmlns="http://www.w3.org/2000/svg">
<g clip-path="url(#clip0_108_47198)">
<path d="M49.2214 42.126H0.945665C0.469592 42.126 0.0835571 41.74 0.0835571 41.2639V10.2295C0.0835571 9.7534 0.469592 9.36737 0.945665 9.36737H49.2215C49.6975 9.36737 50.0836 9.7534 50.0836 10.2295V41.2639C50.0835 41.7401 49.6974 42.126 49.2214 42.126Z" fill="#F5F5F5"/>
<path d="M29.8691 18.5721C25.9079 15.9314 20.5576 17.011 17.9186 20.9653C16.5948 22.939 17.1329 25.621 19.1134 26.9414C21.0924 28.2618 23.7657 27.7255 25.0861 25.7449C26.4065 23.7643 29.0816 23.2347 31.0605 24.5482C33.0428 25.8686 33.5759 28.5505 32.2536 30.5243C34.8944 26.5633 33.8269 21.213 29.8691 18.5721Z" fill="#FF4B55"/>
<path d="M17.9187 20.9654C16.595 22.9391 17.1331 25.621 19.1135 26.9415C21.0925 28.2619 23.7659 27.7256 25.0863 25.745C26.4067 23.7644 29.0818 23.2348 31.0607 24.5483C33.0429 25.8687 33.576 28.5506 32.2538 30.5244C29.6165 34.4923 24.2679 35.5584 20.3067 32.9176C16.3491 30.277 15.278 24.9266 17.9187 20.9654Z" fill="#41479B"/>
<path d="M34.2565 15.3162L35.8224 17.6699C35.9539 17.8677 35.9007 18.1347 35.7033 18.2668L35.3063 18.5327C35.1081 18.6653 34.84 18.612 34.7077 18.4136L33.1399 16.0604C33.0079 15.8625 33.0615 15.595 33.2593 15.4629L33.6583 15.1965C33.8566 15.0642 34.1244 15.1178 34.2565 15.3162Z" fill="#464655"/>
<path d="M36.673 18.9452L38.244 21.2975C38.3767 21.4961 38.3225 21.7648 38.1232 21.8965L37.7244 22.16C37.5266 22.2909 37.2602 22.2371 37.1284 22.0399L35.5583 19.6901C35.4261 19.4923 35.4792 19.2246 35.6771 19.0923L36.075 18.8263C36.2729 18.6939 36.5407 18.7472 36.673 18.9452Z" fill="#464655"/>
<path d="M35.9333 14.1973L39.9205 20.1809C40.0526 20.379 39.9989 20.6466 39.8009 20.7786L39.4003 21.0456C39.2023 21.1777 38.9346 21.1241 38.8026 20.9261L34.814 14.9428C34.6819 14.7446 34.7356 14.4769 34.9338 14.3449L35.3357 14.0774C35.5338 13.9457 35.8013 13.9992 35.9333 14.1973Z" fill="#464655"/>
<path d="M37.6056 13.0801L39.175 15.4384C39.3072 15.637 39.2529 15.9052 39.0538 16.0367L38.6548 16.3004C38.4567 16.4312 38.1902 16.3774 38.0586 16.1799L36.4881 13.8247C36.3559 13.6267 36.4095 13.359 36.6076 13.227L37.0079 12.9602C37.2058 12.828 37.4736 12.8816 37.6056 13.0801Z" fill="#464655"/>
<path d="M40.0233 16.7167L41.5902 19.0701C41.722 19.268 41.6686 19.5352 41.471 19.6673L41.0731 19.9333C40.875 20.0658 40.6068 20.0123 40.4748 19.8139L38.9079 17.4605C38.7761 17.2626 38.8294 16.9954 39.027 16.8633L39.425 16.5973C39.623 16.4648 39.8912 16.5182 40.0233 16.7167Z" fill="#464655"/>
<path d="M13.0459 29.456L17.0326 35.4333C17.1646 35.6312 17.1113 35.8988 16.9132 36.0309L16.514 36.2975C16.316 36.4297 16.0483 36.3763 15.9161 36.1782L11.9294 30.2009C11.7973 30.003 11.8507 29.7354 12.0487 29.6033L12.4479 29.3367C12.646 29.2045 12.9137 29.258 13.0459 29.456Z" fill="#464655"/>
<path d="M11.3725 30.5741L12.9378 32.9219C13.0697 33.1197 13.0165 33.3868 12.8189 33.5191L12.4219 33.7849C12.2239 33.9175 11.9559 33.8642 11.8236 33.6661L10.2565 31.3189C10.1243 31.121 10.1776 30.8533 10.3757 30.7211L10.7747 30.4547C10.9726 30.3225 11.2404 30.376 11.3725 30.5741Z" fill="#464655"/>
<path d="M13.7912 34.2044L15.3581 36.5581C15.49 36.7559 15.4366 37.0232 15.2388 37.1552L14.8406 37.4214C14.6424 37.5539 14.3746 37.5004 14.2423 37.3022L12.6744 34.949C12.5424 34.751 12.5959 34.4836 12.7937 34.3514L13.1929 34.0848C13.3912 33.9524 13.659 34.006 13.7912 34.2044Z" fill="#464655"/>
<path d="M9.69863 31.6918L13.6828 37.6693C13.8147 37.8672 13.7613 38.1345 13.5638 38.2668L13.1656 38.533C12.9676 38.6654 12.6997 38.6121 12.5675 38.4138L8.58096 32.4371C8.44883 32.239 8.50244 31.9714 8.70049 31.8392L9.10107 31.5722C9.29892 31.4402 9.5666 31.4937 9.69863 31.6918Z" fill="#464655"/>
<path d="M11.9303 21.2979L15.9164 15.3157C16.0485 15.1175 16.3163 15.064 16.5144 15.1962L16.9135 15.4627C17.1115 15.5948 17.1648 15.8624 17.0329 16.0604L13.0452 22.0392C12.9134 22.2367 12.6467 22.2904 12.4487 22.1594L12.0512 21.8962C11.8521 21.7646 11.798 21.4963 11.9303 21.2979Z" fill="#464655"/>
<path d="M10.2557 20.1813L14.2426 14.198C14.3747 13.9998 14.6427 13.9463 14.8408 14.0787L15.2389 14.3449C15.4366 14.477 15.4899 14.7442 15.3581 14.9422L11.3723 20.9258C11.2402 21.124 10.9724 21.1776 10.7743 21.0453L10.3751 20.7788C10.1772 20.6467 10.1238 20.3793 10.2557 20.1813Z" fill="#464655"/>
<path d="M8.58015 19.0697L12.5673 13.0804C12.6995 12.8821 12.9675 12.8285 13.1657 12.9609L13.5638 13.2271C13.7615 13.3592 13.8148 13.6262 13.6832 13.8242L9.69841 19.8143C9.56648 20.0126 9.2986 20.0663 9.10046 19.9342L8.69987 19.6672C8.50193 19.5352 8.44841 19.2677 8.58015 19.0697Z" fill="#464655"/>
<path d="M33.1407 35.4333L34.7078 33.0861C34.8401 32.888 35.1081 32.8347 35.306 32.9673L35.7031 33.2332C35.9006 33.3654 35.9538 33.6326 35.8219 33.8304L34.2567 36.1781C34.1246 36.3762 33.8568 36.4298 33.6588 36.2975L33.2597 36.0311C33.0618 35.8989 33.0085 35.6313 33.1407 35.4333Z" fill="#464655"/>
<path d="M35.5578 31.8153L37.1274 29.4565C37.2595 29.2583 37.5272 29.2046 37.7254 29.3367L38.1254 29.6033C38.3235 29.7354 38.377 30.0033 38.2448 30.2013L36.6719 32.5564C36.5399 32.754 36.2732 32.8075 36.0753 32.6762L35.6786 32.4134C35.4799 32.2816 35.4258 32.0136 35.5578 31.8153Z" fill="#464655"/>
<path d="M34.8139 36.5572L36.382 34.2039C36.514 34.0057 36.7817 33.9521 36.9799 34.0842L37.3806 34.3515C37.5786 34.4835 37.6321 34.7509 37.5003 34.9491L35.9332 37.3026C35.8012 37.5007 35.5338 37.5544 35.3355 37.4225L34.9337 37.155C34.7356 37.0231 34.6819 36.7553 34.8139 36.5572Z" fill="#464655"/>
<path d="M37.2339 32.921L38.8029 30.5731C38.9351 30.3754 39.2025 30.322 39.4004 30.454L39.801 30.721C39.9992 30.8531 40.0527 31.121 39.9202 31.319L38.3514 33.6669C38.2193 33.8646 37.9518 33.9179 37.7539 33.786L37.3533 33.519C37.1549 33.3871 37.1015 33.1191 37.2339 32.921Z" fill="#464655"/>
<path d="M36.4883 37.6688L38.0582 35.3196C38.19 35.1224 38.4563 35.0687 38.6542 35.1995L39.0532 35.4631C39.2523 35.5948 39.3066 35.8632 39.1742 36.0619L37.6055 38.4142C37.4735 38.6123 37.2058 38.6657 37.0078 38.5337L36.6075 38.2669C36.4093 38.1347 36.3559 37.8668 36.4883 37.6688Z" fill="#464655"/>
<path d="M38.9084 34.0446L40.4744 31.6926C40.6065 31.4942 40.8746 31.4406 41.0727 31.5731L41.4704 31.8389C41.6681 31.9712 41.7213 32.2386 41.5893 32.4365L40.022 34.7854C39.8903 34.9831 39.6233 35.0367 39.4253 34.9054L39.0289 34.6427C38.8303 34.5111 38.7763 34.243 38.9084 34.0446Z" fill="#464655"/>
</g>
<defs>
<clipPath id="clip0_108_47198">
<rect width="50" height="50" fill="white" transform="translate(0.0820312 0.746582)"/>
</clipPath>
</defs>
</svg>
