<svg width="50" height="51" viewBox="0 0 50 51" fill="none" xmlns="http://www.w3.org/2000/svg">
<g clip-path="url(#clip0_108_46555)">
<path d="M49.1378 41.703H0.862108C0.386034 41.703 0 41.317 0 40.8409V9.8065C0 9.33043 0.386034 8.9444 0.862108 8.9444H49.1379C49.614 8.9444 50 9.33043 50 9.8065V40.8409C49.9999 41.3171 49.6139 41.703 49.1378 41.703Z" fill="#F5F5F5"/>
<path d="M49.9999 11.4644H0V9.8065C0 9.33043 0.386034 8.9444 0.862108 8.9444H49.1379C49.614 8.9444 50 9.33043 50 9.8065L49.9999 11.4644Z" fill="#FF4B55"/>
<path d="M49.9999 19.0239H0V21.5438H49.9999V19.0239Z" fill="#FF4B55"/>
<path d="M49.9999 13.9839H0V16.5038H49.9999V13.9839Z" fill="#FF4B55"/>
<path d="M49.9999 26.5836H0.862108C0.386034 26.5836 0 26.1976 0 25.7215V24.0636H49.9999V26.5836Z" fill="#FF4B55"/>
<path d="M49.9999 34.144H0V36.6639H49.9999V34.144Z" fill="#FF4B55"/>
<path d="M49.1378 41.703H0.862108C0.386034 41.703 0 41.3169 0 40.8409V39.183H49.9999V40.841C49.9999 41.317 49.6139 41.703 49.1378 41.703Z" fill="#FF4B55"/>
<path d="M49.9999 29.1039H0V31.6239H49.9999V29.1039Z" fill="#FF4B55"/>
<path d="M22.4137 8.94455H0.862108C0.386034 8.94455 0 9.33049 0 9.80656V25.7216C0 26.1976 0.386034 26.5837 0.862108 26.5837H22.4138C22.8899 26.5837 23.2759 26.1976 23.2759 25.7216V9.80656C23.2758 9.33049 22.8898 8.94455 22.4137 8.94455Z" fill="#41479B"/>
<path d="M2.42152 10.9232L2.61234 11.4954L3.21556 11.5C3.29368 11.5007 3.32601 11.6003 3.26321 11.6467L2.77796 12.0051L2.95999 12.5802C2.98363 12.6546 2.89876 12.7163 2.83519 12.6708L2.34447 12.3201L1.85375 12.6709C1.79017 12.7163 1.7055 12.6547 1.72894 12.5803L1.91097 12.0052L1.42572 11.6468C1.36293 11.6003 1.39525 11.5008 1.47337 11.5001L2.0766 11.4955L2.26742 10.9233C2.29203 10.849 2.39671 10.849 2.42152 10.9232Z" fill="#F5F5F5"/>
<path d="M2.42103 13.9167L2.61185 14.4889L3.21507 14.4935C3.2932 14.4942 3.32552 14.5938 3.26273 14.6402L2.77747 14.9986L2.9595 15.5737C2.98314 15.6481 2.89827 15.7098 2.8347 15.6643L2.34398 15.3137L1.85326 15.6644C1.78968 15.7098 1.70501 15.6482 1.72845 15.5738L1.91048 14.9987L1.42523 14.6403C1.36244 14.5938 1.39476 14.4943 1.47289 14.4936L2.07611 14.489L2.26693 13.9168C2.29154 13.8427 2.39622 13.8427 2.42103 13.9167Z" fill="#F5F5F5"/>
<path d="M2.42103 16.9102L2.61185 17.4825L3.21507 17.4871C3.2932 17.4878 3.32552 17.5874 3.26273 17.6338L2.77747 17.9922L2.9595 18.5673C2.98314 18.6417 2.89827 18.7034 2.8347 18.6579L2.34398 18.3072L1.85326 18.658C1.78968 18.7034 1.70501 18.6418 1.72845 18.5674L1.91048 17.9923L1.42523 17.6339C1.36244 17.5874 1.39476 17.4879 1.47289 17.4872L2.07611 17.4826L2.26693 16.9103C2.29154 16.8362 2.39622 16.8362 2.42103 16.9102Z" fill="#F5F5F5"/>
<path d="M2.42103 19.9039L2.61185 20.4762L3.21507 20.4808C3.2932 20.4815 3.32552 20.5811 3.26273 20.6275L2.77747 20.9859L2.9595 21.561C2.98314 21.6354 2.89827 21.6971 2.8347 21.6516L2.34398 21.3009L1.85326 21.6517C1.78968 21.6971 1.70501 21.6355 1.72845 21.5611L1.91048 20.986L1.42523 20.6276C1.36244 20.5811 1.39476 20.4816 1.47289 20.4809L2.07611 20.4763L2.26693 19.904C2.29154 19.8298 2.39622 19.8298 2.42103 19.9039Z" fill="#F5F5F5"/>
<path d="M2.42103 22.8974L2.61185 23.4697L3.21507 23.4743C3.2932 23.475 3.32552 23.5746 3.26273 23.621L2.77747 23.9793L2.9595 24.5544C2.98314 24.6289 2.89827 24.6906 2.8347 24.6451L2.34398 24.2944L1.85326 24.6452C1.78968 24.6906 1.70501 24.629 1.72845 24.5545L1.91048 23.9794L1.42523 23.621C1.36244 23.5746 1.39476 23.4751 1.47289 23.4744L2.07611 23.4698L2.26693 22.8975C2.29154 22.8232 2.39622 22.8232 2.42103 22.8974Z" fill="#F5F5F5"/>
<path d="M4.74452 12.3908L4.93533 12.9631L5.53856 12.9677C5.61668 12.9684 5.64901 13.068 5.58621 13.1143L5.10096 13.4727L5.28299 14.0478C5.30662 14.1223 5.22176 14.184 5.15819 14.1385L4.66746 13.7877L4.17674 14.1385C4.11317 14.1839 4.0285 14.1223 4.05194 14.0478L4.23397 13.4727L3.74872 13.1143C3.68592 13.0679 3.71825 12.9684 3.79637 12.9677L4.39959 12.9631L4.59041 12.3908C4.61493 12.3168 4.71981 12.3168 4.74452 12.3908Z" fill="#F5F5F5"/>
<path d="M4.74452 15.3844L4.93533 15.9567L5.53856 15.9613C5.61668 15.962 5.64901 16.0616 5.58621 16.1079L5.10096 16.4663L5.28299 17.0414C5.30662 17.1159 5.22176 17.1776 5.15819 17.1321L4.66746 16.7813L4.17674 17.1321C4.11317 17.1775 4.0285 17.116 4.05194 17.0414L4.23397 16.4663L3.74872 16.1079C3.68592 16.0615 3.71825 15.962 3.79637 15.9613L4.39959 15.9567L4.59041 15.3844C4.61493 15.3103 4.71981 15.3103 4.74452 15.3844Z" fill="#F5F5F5"/>
<path d="M4.74452 18.378L4.93533 18.9502L5.53856 18.9548C5.61668 18.9555 5.64901 19.0551 5.58621 19.1015L5.10096 19.4599L5.28299 20.035C5.30662 20.1094 5.22176 20.1711 5.15819 20.1256L4.66746 19.7749L4.17674 20.1256C4.11317 20.171 4.0285 20.1094 4.05194 20.035L4.23397 19.4599L3.74872 19.1015C3.68592 19.055 3.71825 18.9555 3.79637 18.9548L4.39959 18.9502L4.59041 18.378C4.61493 18.3039 4.71981 18.3039 4.74452 18.378Z" fill="#F5F5F5"/>
<path d="M4.74452 21.3715L4.93533 21.9438L5.53856 21.9484C5.61668 21.9491 5.64901 22.0487 5.58621 22.0951L5.10096 22.4535L5.28299 23.0286C5.30662 23.103 5.22176 23.1647 5.15819 23.1192L4.66746 22.7684L4.17674 23.1192C4.11317 23.1646 4.0285 23.103 4.05194 23.0286L4.23397 22.4535L3.74872 22.0951C3.68592 22.0486 3.71825 21.9491 3.79637 21.9484L4.39959 21.9438L4.59041 21.3715C4.61493 21.2975 4.71981 21.2975 4.74452 21.3715Z" fill="#F5F5F5"/>
<path d="M7.068 10.9231L7.25882 11.4954L7.86204 11.5C7.94017 11.5007 7.97249 11.6003 7.9097 11.6467L7.42445 12.0051L7.60648 12.5802C7.63011 12.6546 7.54525 12.7163 7.48167 12.6708L6.99095 12.32L6.50023 12.6708C6.43666 12.7162 6.35199 12.6546 6.37542 12.5802L6.55746 12.0051L6.0722 11.6467C6.00941 11.6002 6.04173 11.5007 6.11986 11.5L6.72308 11.4954L6.9139 10.9231C6.93851 10.849 7.04329 10.849 7.068 10.9231Z" fill="#F5F5F5"/>
<path d="M7.068 13.9167L7.25882 14.489L7.86204 14.4935C7.94017 14.4942 7.97249 14.5938 7.9097 14.6402L7.42445 14.9986L7.60648 15.5737C7.63011 15.6481 7.54525 15.7099 7.48167 15.6643L6.99095 15.3136L6.50023 15.6643C6.43666 15.7098 6.35199 15.6481 6.37542 15.5737L6.55746 14.9986L6.0722 14.6402C6.00941 14.5937 6.04173 14.4942 6.11986 14.4935L6.72308 14.489L6.9139 13.9167C6.93851 13.8427 7.04329 13.8427 7.068 13.9167Z" fill="#F5F5F5"/>
<path d="M7.068 16.9103L7.25882 17.4825L7.86204 17.4871C7.94017 17.4878 7.97249 17.5874 7.9097 17.6338L7.42445 17.9922L7.60648 18.5673C7.63011 18.6417 7.54525 18.7034 7.48167 18.6579L6.99095 18.3071L6.50023 18.6579C6.43666 18.7033 6.35199 18.6417 6.37542 18.5673L6.55746 17.9922L6.0722 17.6338C6.00941 17.5873 6.04173 17.4878 6.11986 17.4871L6.72308 17.4825L6.9139 16.9103C6.93851 16.8362 7.04329 16.8362 7.068 16.9103Z" fill="#F5F5F5"/>
<path d="M7.068 19.9039L7.25882 20.4761L7.86204 20.4807C7.94017 20.4814 7.97249 20.581 7.9097 20.6274L7.42445 20.9858L7.60648 21.5609C7.63011 21.6353 7.54525 21.697 7.48167 21.6515L6.99095 21.3007L6.50023 21.6515C6.43666 21.6969 6.35199 21.6353 6.37542 21.5609L6.55746 20.9858L6.0722 20.6274C6.00941 20.5809 6.04173 20.4814 6.11986 20.4807L6.72308 20.4761L6.9139 19.9039C6.93851 19.8297 7.04329 19.8297 7.068 19.9039Z" fill="#F5F5F5"/>
<path d="M7.068 22.8974L7.25882 23.4697L7.86204 23.4743C7.94017 23.475 7.97249 23.5746 7.9097 23.621L7.42445 23.9794L7.60648 24.5545C7.63011 24.6289 7.54525 24.6906 7.48167 24.6451L6.99095 24.2943L6.50023 24.6451C6.43666 24.6905 6.35199 24.6289 6.37542 24.5545L6.55746 23.9794L6.0722 23.621C6.00941 23.5745 6.04173 23.475 6.11986 23.4743L6.72308 23.4697L6.9139 22.8974C6.93851 22.8232 7.04329 22.8232 7.068 22.8974Z" fill="#F5F5F5"/>
<path d="M9.39173 12.3908L9.58255 12.9631L10.1858 12.9677C10.2639 12.9684 10.2962 13.068 10.2334 13.1143L9.74818 13.4727L9.93021 14.0478C9.95384 14.1223 9.86898 14.184 9.8054 14.1385L9.31468 13.7877L8.82396 14.1385C8.76039 14.1839 8.67572 14.1223 8.69916 14.0478L8.88119 13.4727L8.39593 13.1143C8.33314 13.0679 8.36546 12.9684 8.44359 12.9677L9.04681 12.9631L9.23763 12.3908C9.26214 12.3168 9.36702 12.3168 9.39173 12.3908Z" fill="#F5F5F5"/>
<path d="M9.39173 15.3844L9.58255 15.9567L10.1858 15.9613C10.2639 15.962 10.2962 16.0616 10.2334 16.1079L9.74818 16.4663L9.93021 17.0414C9.95384 17.1159 9.86898 17.1776 9.8054 17.1321L9.31468 16.7813L8.82396 17.1321C8.76039 17.1775 8.67572 17.116 8.69916 17.0414L8.88119 16.4663L8.39593 16.1079C8.33314 16.0615 8.36546 15.962 8.44359 15.9613L9.04681 15.9567L9.23763 15.3844C9.26214 15.3103 9.36702 15.3103 9.39173 15.3844Z" fill="#F5F5F5"/>
<path d="M9.39173 18.378L9.58255 18.9502L10.1858 18.9548C10.2639 18.9555 10.2962 19.0551 10.2334 19.1015L9.74818 19.4599L9.93021 20.035C9.95384 20.1094 9.86898 20.1711 9.8054 20.1256L9.31468 19.7749L8.82396 20.1256C8.76039 20.171 8.67572 20.1094 8.69916 20.035L8.88119 19.4599L8.39593 19.1015C8.33314 19.055 8.36546 18.9555 8.44359 18.9548L9.04681 18.9502L9.23763 18.378C9.26214 18.3039 9.36702 18.3039 9.39173 18.378Z" fill="#F5F5F5"/>
<path d="M9.39173 21.3715L9.58255 21.9438L10.1858 21.9484C10.2639 21.9491 10.2962 22.0487 10.2334 22.0951L9.74818 22.4535L9.93021 23.0286C9.95384 23.103 9.86898 23.1647 9.8054 23.1192L9.31468 22.7684L8.82396 23.1192C8.76039 23.1646 8.67572 23.103 8.69916 23.0286L8.88119 22.4535L8.39593 22.0951C8.33314 22.0486 8.36546 21.9491 8.44359 21.9484L9.04681 21.9438L9.23763 21.3715C9.26214 21.2975 9.36702 21.2975 9.39173 21.3715Z" fill="#F5F5F5"/>
<path d="M11.7153 10.9231L11.9061 11.4954L12.5094 11.5C12.5875 11.5007 12.6198 11.6003 12.557 11.6467L12.0718 12.0051L12.2538 12.5802C12.2774 12.6546 12.1926 12.7163 12.129 12.6708L11.6382 12.32L11.1474 12.6708C11.0839 12.7162 10.9992 12.6546 11.0226 12.5802L11.2047 12.0051L10.7194 11.6467C10.6566 11.6002 10.689 11.5007 10.7671 11.5L11.3703 11.4954L11.5611 10.9231C11.5858 10.849 11.6906 10.849 11.7153 10.9231Z" fill="#F5F5F5"/>
<path d="M11.7153 13.9167L11.9061 14.489L12.5094 14.4935C12.5875 14.4942 12.6198 14.5938 12.557 14.6402L12.0718 14.9986L12.2538 15.5737C12.2774 15.6481 12.1926 15.7099 12.129 15.6643L11.6382 15.3136L11.1474 15.6643C11.0839 15.7098 10.9992 15.6481 11.0226 15.5737L11.2047 14.9986L10.7194 14.6402C10.6566 14.5937 10.689 14.4942 10.7671 14.4935L11.3703 14.489L11.5611 13.9167C11.5858 13.8427 11.6906 13.8427 11.7153 13.9167Z" fill="#F5F5F5"/>
<path d="M11.7153 16.9103L11.9061 17.4825L12.5094 17.4871C12.5875 17.4878 12.6198 17.5874 12.557 17.6338L12.0718 17.9922L12.2538 18.5673C12.2774 18.6417 12.1926 18.7034 12.129 18.6579L11.6382 18.3071L11.1474 18.6579C11.0839 18.7033 10.9992 18.6417 11.0226 18.5673L11.2047 17.9922L10.7194 17.6338C10.6566 17.5873 10.689 17.4878 10.7671 17.4871L11.3703 17.4825L11.5611 16.9103C11.5858 16.8362 11.6906 16.8362 11.7153 16.9103Z" fill="#F5F5F5"/>
<path d="M11.7153 19.9039L11.9061 20.4761L12.5094 20.4807C12.5875 20.4814 12.6198 20.581 12.557 20.6274L12.0718 20.9858L12.2538 21.5609C12.2774 21.6353 12.1926 21.697 12.129 21.6515L11.6382 21.3007L11.1474 21.6515C11.0839 21.6969 10.9992 21.6353 11.0226 21.5609L11.2047 20.9858L10.7194 20.6274C10.6566 20.5809 10.689 20.4814 10.7671 20.4807L11.3703 20.4761L11.5611 19.9039C11.5858 19.8297 11.6906 19.8297 11.7153 19.9039Z" fill="#F5F5F5"/>
<path d="M11.7153 22.8974L11.9061 23.4697L12.5094 23.4743C12.5875 23.475 12.6198 23.5746 12.557 23.621L12.0718 23.9794L12.2538 24.5545C12.2774 24.6289 12.1926 24.6906 12.129 24.6451L11.6382 24.2943L11.1474 24.6451C11.0839 24.6905 10.9992 24.6289 11.0226 24.5545L11.2047 23.9794L10.7194 23.621C10.6566 23.5745 10.689 23.475 10.7671 23.4743L11.3703 23.4697L11.5611 22.8974C11.5858 22.8232 11.6906 22.8232 11.7153 22.8974Z" fill="#F5F5F5"/>
<path d="M14.039 12.3908L14.2298 12.9631L14.833 12.9677C14.9111 12.9684 14.9434 13.068 14.8806 13.1143L14.3954 13.4727L14.5774 14.0478C14.6011 14.1223 14.5162 14.184 14.4526 14.1385L13.9619 13.7877L13.4712 14.1385C13.4076 14.1839 13.3229 14.1223 13.3464 14.0478L13.5284 13.4727L13.0432 13.1143C12.9804 13.0679 13.0127 12.9684 13.0908 12.9677L13.694 12.9631L13.8848 12.3908C13.9096 12.3168 14.0142 12.3168 14.039 12.3908Z" fill="#F5F5F5"/>
<path d="M14.039 15.3844L14.2298 15.9567L14.833 15.9613C14.9111 15.962 14.9434 16.0616 14.8806 16.1079L14.3954 16.4663L14.5774 17.0414C14.6011 17.1159 14.5162 17.1776 14.4526 17.1321L13.9619 16.7813L13.4712 17.1321C13.4076 17.1775 13.3229 17.116 13.3464 17.0414L13.5284 16.4663L13.0432 16.1079C12.9804 16.0615 13.0127 15.962 13.0908 15.9613L13.694 15.9567L13.8848 15.3844C13.9096 15.3103 14.0142 15.3103 14.039 15.3844Z" fill="#F5F5F5"/>
<path d="M14.039 18.378L14.2298 18.9502L14.833 18.9548C14.9111 18.9555 14.9434 19.0551 14.8806 19.1015L14.3954 19.4599L14.5774 20.035C14.6011 20.1094 14.5162 20.1711 14.4526 20.1256L13.9619 19.7749L13.4712 20.1256C13.4076 20.171 13.3229 20.1094 13.3464 20.035L13.5284 19.4599L13.0432 19.1015C12.9804 19.055 13.0127 18.9555 13.0908 18.9548L13.694 18.9502L13.8848 18.378C13.9096 18.3039 14.0142 18.3039 14.039 18.378Z" fill="#F5F5F5"/>
<path d="M14.039 21.3715L14.2298 21.9438L14.833 21.9484C14.9111 21.9491 14.9434 22.0487 14.8806 22.0951L14.3954 22.4535L14.5774 23.0286C14.6011 23.103 14.5162 23.1647 14.4526 23.1192L13.9619 22.7684L13.4712 23.1192C13.4076 23.1646 13.3229 23.103 13.3464 23.0286L13.5284 22.4535L13.0432 22.0951C12.9804 22.0486 13.0127 21.9491 13.0908 21.9484L13.694 21.9438L13.8848 21.3715C13.9096 21.2975 14.0142 21.2975 14.039 21.3715Z" fill="#F5F5F5"/>
<path d="M16.3624 10.9231L16.5533 11.4954L17.1565 11.5C17.2346 11.5007 17.2669 11.6003 17.2041 11.6467L16.7189 12.0051L16.9009 12.5802C16.9245 12.6546 16.8397 12.7163 16.7761 12.6708L16.2854 12.32L15.7947 12.6708C15.7311 12.7162 15.6464 12.6546 15.6699 12.5802L15.8519 12.0051L15.3666 11.6467C15.3038 11.6002 15.3362 11.5007 15.4143 11.5L16.0175 11.4954L16.2083 10.9231C16.2328 10.849 16.3377 10.849 16.3624 10.9231Z" fill="#F5F5F5"/>
<path d="M16.3624 13.9167L16.5533 14.489L17.1565 14.4935C17.2346 14.4942 17.2669 14.5938 17.2041 14.6402L16.7189 14.9986L16.9009 15.5737C16.9245 15.6481 16.8397 15.7099 16.7761 15.6643L16.2854 15.3136L15.7947 15.6643C15.7311 15.7098 15.6464 15.6481 15.6699 15.5737L15.8519 14.9986L15.3666 14.6402C15.3038 14.5937 15.3362 14.4942 15.4143 14.4935L16.0175 14.489L16.2083 13.9167C16.2328 13.8427 16.3377 13.8427 16.3624 13.9167Z" fill="#F5F5F5"/>
<path d="M16.3624 16.9103L16.5533 17.4825L17.1565 17.4871C17.2346 17.4878 17.2669 17.5874 17.2041 17.6338L16.7189 17.9922L16.9009 18.5673C16.9245 18.6417 16.8397 18.7034 16.7761 18.6579L16.2854 18.3071L15.7947 18.6579C15.7311 18.7033 15.6464 18.6417 15.6699 18.5673L15.8519 17.9922L15.3666 17.6338C15.3038 17.5873 15.3362 17.4878 15.4143 17.4871L16.0175 17.4825L16.2083 16.9103C16.2328 16.8362 16.3377 16.8362 16.3624 16.9103Z" fill="#F5F5F5"/>
<path d="M16.3624 19.9039L16.5533 20.4761L17.1565 20.4807C17.2346 20.4814 17.2669 20.581 17.2041 20.6274L16.7189 20.9858L16.9009 21.5609C16.9245 21.6353 16.8397 21.697 16.7761 21.6515L16.2854 21.3007L15.7947 21.6515C15.7311 21.6969 15.6464 21.6353 15.6699 21.5609L15.8519 20.9858L15.3666 20.6274C15.3038 20.5809 15.3362 20.4814 15.4143 20.4807L16.0175 20.4761L16.2083 19.9039C16.2328 19.8297 16.3377 19.8297 16.3624 19.9039Z" fill="#F5F5F5"/>
<path d="M16.3624 22.8974L16.5533 23.4697L17.1565 23.4743C17.2346 23.475 17.2669 23.5746 17.2041 23.621L16.7189 23.9794L16.9009 24.5545C16.9245 24.6289 16.8397 24.6906 16.7761 24.6451L16.2854 24.2943L15.7947 24.6451C15.7311 24.6905 15.6464 24.6289 15.6699 24.5545L15.8519 23.9794L15.3666 23.621C15.3038 23.5745 15.3362 23.475 15.4143 23.4743L16.0175 23.4697L16.2083 22.8974C16.2328 22.8232 16.3377 22.8232 16.3624 22.8974Z" fill="#F5F5F5"/>
<path d="M18.6859 12.3908L18.8767 12.9631L19.48 12.9677C19.5581 12.9684 19.5904 13.068 19.5276 13.1143L19.0424 13.4727L19.2244 14.0478C19.248 14.1223 19.1632 14.184 19.0996 14.1385L18.6089 13.7877L18.1181 14.1385C18.0546 14.1839 17.9699 14.1223 17.9933 14.0478L18.1754 13.4727L17.6901 13.1143C17.6273 13.0679 17.6597 12.9684 17.7378 12.9677L18.341 12.9631L18.5318 12.3908C18.5564 12.3168 18.6613 12.3168 18.6859 12.3908Z" fill="#F5F5F5"/>
<path d="M18.6859 15.3844L18.8767 15.9567L19.48 15.9613C19.5581 15.962 19.5904 16.0616 19.5276 16.1079L19.0424 16.4663L19.2244 17.0414C19.248 17.1159 19.1632 17.1776 19.0996 17.1321L18.6089 16.7813L18.1181 17.1321C18.0546 17.1775 17.9699 17.116 17.9933 17.0414L18.1754 16.4663L17.6901 16.1079C17.6273 16.0615 17.6597 15.962 17.7378 15.9613L18.341 15.9567L18.5318 15.3844C18.5564 15.3103 18.6613 15.3103 18.6859 15.3844Z" fill="#F5F5F5"/>
<path d="M18.6859 18.378L18.8767 18.9502L19.48 18.9548C19.5581 18.9555 19.5904 19.0551 19.5276 19.1015L19.0424 19.4599L19.2244 20.035C19.248 20.1094 19.1632 20.1711 19.0996 20.1256L18.6089 19.7749L18.1181 20.1256C18.0546 20.171 17.9699 20.1094 17.9933 20.035L18.1754 19.4599L17.6901 19.1015C17.6273 19.055 17.6597 18.9555 17.7378 18.9548L18.341 18.9502L18.5318 18.378C18.5564 18.3039 18.6613 18.3039 18.6859 18.378Z" fill="#F5F5F5"/>
<path d="M18.6859 21.3715L18.8767 21.9438L19.48 21.9484C19.5581 21.9491 19.5904 22.0487 19.5276 22.0951L19.0424 22.4535L19.2244 23.0286C19.248 23.103 19.1632 23.1647 19.0996 23.1192L18.6089 22.7684L18.1181 23.1192C18.0546 23.1646 17.9699 23.103 17.9933 23.0286L18.1754 22.4535L17.6901 22.0951C17.6273 22.0486 17.6597 21.9491 17.7378 21.9484L18.341 21.9438L18.5318 21.3715C18.5564 21.2975 18.6613 21.2975 18.6859 21.3715Z" fill="#F5F5F5"/>
<path d="M21.0097 10.9231L21.2005 11.4954L21.8037 11.5C21.8818 11.5007 21.9141 11.6003 21.8514 11.6467L21.3661 12.0051L21.5481 12.5802C21.5718 12.6546 21.4869 12.7163 21.4233 12.6708L20.9326 12.32L20.4419 12.6708C20.3783 12.7162 20.2936 12.6546 20.3171 12.5802L20.4991 12.0051L20.0139 11.6467C19.9511 11.6002 19.9834 11.5007 20.0615 11.5L20.6647 11.4954L20.8556 10.9231C20.8802 10.849 20.9848 10.849 21.0097 10.9231Z" fill="#F5F5F5"/>
<path d="M21.0097 13.9167L21.2005 14.489L21.8037 14.4935C21.8818 14.4942 21.9141 14.5938 21.8514 14.6402L21.3661 14.9986L21.5481 15.5737C21.5718 15.6481 21.4869 15.7099 21.4233 15.6643L20.9326 15.3136L20.4419 15.6643C20.3783 15.7098 20.2936 15.6481 20.3171 15.5737L20.4991 14.9986L20.0139 14.6402C19.9511 14.5937 19.9834 14.4942 20.0615 14.4935L20.6647 14.489L20.8556 13.9167C20.8802 13.8427 20.9848 13.8427 21.0097 13.9167Z" fill="#F5F5F5"/>
<path d="M21.0097 16.9103L21.2005 17.4825L21.8037 17.4871C21.8818 17.4878 21.9141 17.5874 21.8514 17.6338L21.3661 17.9922L21.5481 18.5673C21.5718 18.6417 21.4869 18.7034 21.4233 18.6579L20.9326 18.3071L20.4419 18.6579C20.3783 18.7033 20.2936 18.6417 20.3171 18.5673L20.4991 17.9922L20.0139 17.6338C19.9511 17.5873 19.9834 17.4878 20.0615 17.4871L20.6647 17.4825L20.8556 16.9103C20.8802 16.8362 20.9848 16.8362 21.0097 16.9103Z" fill="#F5F5F5"/>
<path d="M21.0097 19.9039L21.2005 20.4761L21.8037 20.4807C21.8818 20.4814 21.9141 20.581 21.8514 20.6274L21.3661 20.9858L21.5481 21.5609C21.5718 21.6353 21.4869 21.697 21.4233 21.6515L20.9326 21.3007L20.4419 21.6515C20.3783 21.6969 20.2936 21.6353 20.3171 21.5609L20.4991 20.9858L20.0139 20.6274C19.9511 20.5809 19.9834 20.4814 20.0615 20.4807L20.6647 20.4761L20.8556 19.9039C20.8802 19.8297 20.9848 19.8297 21.0097 19.9039Z" fill="#F5F5F5"/>
<path d="M21.0097 22.8974L21.2005 23.4697L21.8037 23.4743C21.8818 23.475 21.9141 23.5746 21.8514 23.621L21.3661 23.9794L21.5481 24.5545C21.5718 24.6289 21.4869 24.6906 21.4233 24.6451L20.9326 24.2943L20.4419 24.6451C20.3783 24.6905 20.2936 24.6289 20.3171 24.5545L20.4991 23.9794L20.0139 23.621C19.9511 23.5745 19.9834 23.475 20.0615 23.4743L20.6647 23.4697L20.8556 22.8974C20.8802 22.8232 20.9848 22.8232 21.0097 22.8974Z" fill="#F5F5F5"/>
</g>
<defs>
<clipPath id="clip0_108_46555">
<rect width="50" height="50" fill="white" transform="translate(0 0.32373)"/>
</clipPath>
</defs>
</svg>
