<svg width="48" height="48" viewBox="0 0 48 48" fill="none" xmlns="http://www.w3.org/2000/svg">
<rect width="48" height="48" rx="24" fill="white" fill-opacity="0.1"/>
<path fill-rule="evenodd" clip-rule="evenodd" d="M39.3757 22.1169C39.7637 22.6705 39.9833 23.3245 40.008 24C40.0183 24.6613 39.8411 25.312 39.4971 25.8769C39.1531 26.4417 38.6563 26.8977 38.064 27.192C38.091 27.5435 38.091 27.8966 38.064 28.248C38.064 33.624 31.8 37.992 24.072 37.992C16.344 37.992 10.08 33.624 10.08 28.248C10.053 27.8966 10.053 27.5435 10.08 27.192C9.6184 26.98 9.20842 26.67 8.87849 26.2838C8.54855 25.8975 8.30655 25.4441 8.16926 24.955C8.03197 24.4659 8.00268 23.9528 8.0834 23.4512C8.16413 22.9497 8.35294 22.4717 8.63676 22.0503C8.92058 21.629 9.29262 21.2744 9.7271 21.0112C10.1616 20.7479 10.6481 20.5823 11.1529 20.5258C11.6578 20.4692 12.1689 20.5232 12.6508 20.6838C13.1328 20.8444 13.574 21.1079 13.944 21.456C16.7095 19.5805 19.9629 18.5544 23.304 18.504L25.08 10.176C25.1 10.0796 25.1388 9.98814 25.1944 9.90687C25.25 9.82559 25.3211 9.75615 25.4037 9.70258C25.4863 9.649 25.5787 9.61235 25.6756 9.59475C25.7725 9.57715 25.8719 9.57895 25.968 9.60005L31.848 10.776C32.1352 10.2827 32.5888 9.90785 33.1274 9.71879C33.666 9.52973 34.2544 9.53885 34.7869 9.74449C35.3194 9.95014 35.7611 10.3389 36.0329 10.8409C36.3046 11.3429 36.3885 11.9253 36.2695 12.4836C36.1506 13.0419 35.8365 13.5395 35.3837 13.8871C34.9309 14.2347 34.369 14.4095 33.7989 14.3802C33.2289 14.3508 32.6879 14.1193 32.2732 13.727C31.8584 13.3348 31.5971 12.8076 31.536 12.24L26.4 11.16L24.84 18.648C28.1405 18.7188 31.3498 19.7442 34.08 21.6C34.5677 21.1319 35.1804 20.8149 35.8443 20.6872C36.5081 20.5595 37.1947 20.6265 37.8213 20.8802C38.4479 21.1338 38.9877 21.5634 39.3757 22.1169ZM29.5313 28.7969C30.8559 28.7969 31.9297 27.7231 31.9297 26.3985C31.9297 25.0739 30.8559 24.0001 29.5313 24.0001C28.2066 24.0001 27.1328 25.0739 27.1328 26.3985C27.1328 27.7231 28.2066 28.7969 29.5313 28.7969ZM20.8125 26.3985C20.8125 27.7231 19.7387 28.7969 18.4141 28.7969C17.0895 28.7969 16.0156 27.7231 16.0156 26.3985C16.0156 25.0739 17.0895 24.0001 18.4141 24.0001C19.7387 24.0001 20.8125 25.0739 20.8125 26.3985ZM24.0237 33.5713L24.0118 33.5714L24 33.5713V33.5714C22.2894 33.5818 21.0245 33.1986 20.1966 32.8231C19.7796 32.634 19.4718 32.4461 19.2729 32.3097C19.1736 32.2416 19.1015 32.1864 19.0568 32.1505C19.0344 32.1326 19.0189 32.1195 19.0102 32.112L19.0032 32.1059C19.003 32.1057 19.0027 32.1055 19.0025 32.1053C18.7381 31.8646 18.3286 31.8826 18.0864 32.1462C17.8435 32.4105 17.8608 32.8217 18.1252 33.0646L18.1262 33.0655L18.1274 33.0666L18.1303 33.0693L18.1382 33.0764L18.1622 33.0974C18.1819 33.1143 18.2089 33.137 18.2433 33.1645C18.312 33.2196 18.4101 33.2943 18.5377 33.3819C18.793 33.5569 19.1668 33.7836 19.6597 34.0071C20.6432 34.4531 22.0945 34.8836 24.0118 34.8714C25.9292 34.8836 27.3805 34.4531 28.3639 34.0071C28.8569 33.7836 29.2307 33.5569 29.4859 33.3819C29.6136 33.2943 29.7117 33.2196 29.7804 33.1645C29.8148 33.137 29.8418 33.1143 29.8614 33.0974L29.8855 33.0764L29.8934 33.0693L29.8963 33.0666L29.8975 33.0655L29.8985 33.0646C30.1628 32.8217 30.1802 32.4105 29.9373 32.1462C29.6951 31.8826 29.2856 31.8646 29.0212 32.1053L29.0205 32.1059L29.0135 32.112C29.0048 32.1195 28.9893 32.1326 28.9669 32.1505C28.9222 32.1864 28.8501 32.2416 28.7507 32.3097C28.5519 32.4461 28.2441 32.634 27.827 32.8231C26.9992 33.1986 25.7343 33.5818 24.0237 33.5714V33.5713Z" fill="white"/>
</svg>
